<?xml version="1.0" encoding="utf-8"?>
<!-- Generator: Adobe Illustrator 16.0.0, SVG Export Plug-In . SVG Version: 6.00 Build 0)  -->
<!DOCTYPE svg PUBLIC "-//W3C//DTD SVG 1.1//EN" "http://www.w3.org/Graphics/SVG/1.1/DTD/svg11.dtd">
<svg version="1.1" id="Layer_1" xmlns="http://www.w3.org/2000/svg" xmlns:xlink="http://www.w3.org/1999/xlink" x="0px" y="0px"
	 width="90px" height="155px" viewBox="0 0 90 155" enable-background="new 0 0 90 155" xml:space="preserve">
<path fill="#A56D29" d="M15.083,42.24C6.881,43.658,0.438,56.479,0.438,72.038v22.65c2.906-8.263,8.015-15.494,14.63-20.976V43.25
	C15.068,42.911,15.077,42.576,15.083,42.24z"/>
<g>
	<path fill="#A56D29" d="M89.338,36.716c-7.412,0.026-13.652,7.646-14.055,19.689h-0.018l0.002,0.457
		c-0.012,0.511-0.01,1.031,0,1.557l0.02,14.463c6.115,4.974,10.99,11.456,14.057,18.893V56.251h-0.02L89.338,36.716z"/>
	<path fill="#A56D29" d="M89.338,36.715L89.338,36.715c0.014,0.001,0.025,0,0.039,0H89.338z"/>
</g>
<path fill="#A56D29" d="M72.023,38.692L71.982,7.676c-7.932,0.726-14.41,11.915-15.531,26.294l0.037,29.772l0,0v0.298
	c5.658,1.331,10.848,3.634,15.535,6.782V38.692z"/>
<path fill="#A56D29" d="M53.193,0c-8.478,0.728-15.316,13.24-15.838,28.864v1.168l0.043,33.408c2.629-0.45,5.326-0.698,8.081-0.698
	c2.627,0,5.202,0.222,7.714,0.632V0z"/>
<path fill="#A56D29" d="M34.126,12.471c-8.068,0.713-14.647,12.098-15.701,26.674l0.041,32.003c2.806-1.934,5.828-3.571,9.021-4.876
	c0.896-0.442,2.823-1.045,2.823-1.045c1.257-0.423,2.537-0.797,3.838-1.116V30.037L34.126,12.471z"/>
<path fill="#A56D29" d="M45.435,90.931c-17.623,0.091-27.933,9.877-31.871,19.315c3.81,9.562,14.158,19.625,32.032,19.718
	c17.617-0.092,27.926-9.873,31.867-19.309c-0.059-0.146-0.109-0.293-0.17-0.439C73.348,100.787,63.039,91.021,45.435,90.931z
	 M45.844,120.923L45.844,120.923H45.84c-3.776-0.004-7.45-3.119-6.809-7.797c0,0,0.366-7.013,6.809-14.505v-0.005
	c0,0.001,0.002,0.001,0.003,0.003c0-0.002,0-0.002,0.001-0.003v0.005c6.443,7.492,6.812,14.505,6.812,14.505
	C53.295,117.802,49.621,120.919,45.844,120.923z"/>
<path fill="#A56D29" d="M10.418,111.018c-3.467-8.803-3.454-18.469,0.319-27.146c0.431-0.991,0.908-1.953,1.42-2.89
	c-6.967,7.862-11.21,18.189-11.21,29.495c0,24.555,19.978,44.531,44.532,44.531c5.075,0,9.95-0.865,14.501-2.437l0,0
	c14.754-6.114,22.395-22.39,18.875-37.461c-5.166,9.251-15.943,17.888-33.014,18.054v0.008c-0.083,0-0.163-0.003-0.246-0.003
	c-0.082,0-0.164,0.003-0.246,0.003v-0.008C25.769,132.976,14.47,121.639,10.418,111.018"/>
<path fill="#A56D29" d="M13.678,85.151c-2.904,6.673-3.452,13.963-1.647,20.896c5.106-9.351,15.922-18.152,33.157-18.318v-0.009
	c0.083,0,0.164,0.004,0.247,0.004c0.083,0,0.163-0.004,0.247-0.004v0.009c18.959,0.183,30.154,10.817,34.523,21.136l0.002-0.002
	c0.016,0.043,0.031,0.085,0.047,0.126c0.125,0.296,0.246,0.592,0.357,0.886l-0.014,0.006c4.137,10.905,2.512,22.684-3.445,31.859
	c7.943-8.045,12.857-19.089,12.857-31.263c0-24.554-19.977-44.53-44.53-44.53c-5.906,0-11.543,1.166-16.705,3.264
	C22.027,72.581,16.723,78.152,13.678,85.151z"/>
</svg>
