<?xml version="1.0" encoding="utf-8"?>
<!-- Generator: Adobe Illustrator 16.0.4, SVG Export Plug-In . SVG Version: 6.00 Build 0)  -->
<!DOCTYPE svg PUBLIC "-//W3C//DTD SVG 1.1//EN" "http://www.w3.org/Graphics/SVG/1.1/DTD/svg11.dtd">
<svg version="1.1" id="Layer_1" xmlns="http://www.w3.org/2000/svg" xmlns:xlink="http://www.w3.org/1999/xlink" x="0px" y="0px"
	 width="394.63px" height="574.053px" viewBox="0 0 394.63 574.053" enable-background="new 0 0 394.63 574.053"
	 xml:space="preserve">
<g>
	<path fill="#A56E29" d="M116.832,151.015c-37.854,0.936-39.104,42.186-39.106,79.569v22.254
		c7.759-22.064,21.402-41.374,39.066-56.011v-43.114C116.792,152.812,116.817,151.913,116.832,151.015z"/>
	<g>
		<path fill="#A56E29" d="M315.115,74.797c-35.887-0.096-37.637,27.404-37.53,52.571h-0.048l0.002,1.22
			c-0.029,1.366-0.022,2.751,0.004,4.157l0.054,61.867c16.331,13.279,29.348,30.588,37.532,50.448V126.958l-0.053,0.002
			L315.115,74.797z"/>
		<path fill="#A56E29" d="M315.115,74.793v0.004c0.033,0,0.068-0.004,0.102-0.004H315.115z"/>
	</g>
	<path fill="#A56E29" d="M268.877,103.315l-0.108-82.819c-39.696-0.049-41.291,34.705-41.476,70.213l0.102,79.5l0,0v0.797
		c15.106,3.553,28.967,9.705,41.482,18.109V103.315z"/>
	<path fill="#A56E29" d="M218.599,0.001c-40.813-0.221-42.371,38.95-42.296,77.075v3.12l0.12,89.208
		c7.017-1.205,14.222-1.867,21.578-1.867c7.015,0,13.889,0.591,20.599,1.688V0.001z"/>
	<path fill="#A56E29" d="M167.684,33.301c-40.278,0.282-41.706,35.9-41.926,71.225l0.11,85.456
		c7.494-5.161,15.563-9.532,24.09-13.019c2.394-1.181,7.542-2.792,7.542-2.792c3.354-1.13,6.77-2.127,10.243-2.979V80.205
		L167.684,33.301z"/>
	<path fill="#A56E29" d="M197.881,242.805c-47.061,0.247-74.591,26.376-85.103,51.578c10.17,25.533,37.806,52.405,85.533,52.652
		c47.043-0.243,74.57-26.363,85.09-51.561c-0.154-0.391-0.292-0.779-0.45-1.172C272.415,269.125,244.889,243.052,197.881,242.805z
		 M198.974,322.893h-0.003h-0.009c-10.084-0.009-19.89-8.328-18.185-20.817c0,0,0.982-18.728,18.185-38.733v-0.013
		c0,0.002,0.005,0.002,0.009,0.009c0-0.006,0-0.006,0.003-0.009v0.013c17.205,20.005,18.187,38.733,18.187,38.733
		C218.869,314.562,209.06,322.884,198.974,322.893z"/>
	<path fill="#A56E29" d="M104.375,296.443c-9.259-23.505-9.222-49.318,0.854-72.483c1.152-2.648,2.425-5.217,3.793-7.717
		c-18.604,20.992-29.938,48.572-29.938,78.759c0,65.565,53.348,118.908,118.915,118.908c13.551,0,26.57-2.311,38.72-6.505l0,0
		c39.401-16.327,59.8-59.784,50.401-100.033c-13.794,24.707-42.57,47.77-88.154,48.21v0.022c-0.221,0-0.435-0.009-0.655-0.009
		c-0.219,0-0.439,0.009-0.66,0.009v-0.022C145.364,355.076,115.197,324.806,104.375,296.443"/>
	<path fill="#A56E29" d="M113.081,227.376c-7.75,17.816-9.215,37.283-4.397,55.799c13.635-24.968,42.515-48.473,88.539-48.915
		v-0.024c0.223,0,0.437,0.011,0.659,0.011s0.435-0.011,0.66-0.011v0.024c50.626,0.485,80.52,28.885,92.184,56.435l0.007-0.004
		c0.044,0.114,0.084,0.229,0.128,0.34c0.329,0.787,0.651,1.575,0.953,2.363l-0.037,0.013c11.044,29.123,6.703,60.574-9.2,85.076
		c21.206-21.483,34.329-50.975,34.329-83.48c0-65.566-53.339-118.907-118.904-118.907c-15.773,0-30.824,3.114-44.607,8.716
		C135.375,193.809,121.21,208.684,113.081,227.376z"/>
</g>
<g>
	<g>
		<path fill="#A56E29" d="M33.212,507.261v-2.902c-2.906,2.688-7.417,3.975-12.576,3.975C5.481,508.333,0,499.952,0,491.785
			c0-7.738,5.481-16.446,20.636-16.446c4.727,0,9.562,1.186,12.359,3.549v-5.051c0-7.311-3.979-9.566-10.532-9.566
			c-6.664,0-9.138,2.472-10.102,5.054H1.611c1.613-7.417,6.88-13.435,20.853-13.435c14.074,0,20.851,4.943,20.851,18.915v32.456
			H33.212z M21.493,483.614c-8.383,0-11.066,4.409-11.066,8.171c0,3.87,2.684,8.275,11.066,8.275c8.39,0,11.719-3.975,11.719-8.275
			C33.212,487.595,29.882,483.614,21.493,483.614z"/>
	</g>
	<g>
		<path fill="#A56E29" d="M83.397,529.613c-9.669,0-15.051-4.835-15.051-14.723v-7.09c-11.389-1.507-16.332-9.46-16.332-21.715
			v-29.121h10.316v29.121c0,8.168,3.332,13.115,11.282,13.115c8.065,0,11.397-4.947,11.397-13.115v-29.121h10.318v29.121
			c0,12.361-5.159,20.42-16.658,21.818v6.664c0,4.195,1.606,6.554,5.268,6.554c2.469,0,4.727-0.962,6.448-4.298h10.316
			C97.904,525.637,90.595,529.613,83.397,529.613z"/>
	</g>
	<g>
		<path fill="#A56E29" d="M136.592,507.261v-4.516c-2.26,3.549-7.196,5.588-12.677,5.588c-14.299,0-20.314-7.948-20.314-22.031
			v-29.337h10.312v28.803c0,8.486,2.906,13.434,11.505,13.434c6.878,0,11.174-3.872,11.174-10.962v-31.274h10.318v50.296H136.592z"
			/>
	</g>
	<g>
		<path fill="#A56E29" d="M184.633,468.68c-1.719-3.442-4.51-4.301-6.986-4.301c-4.943,0-7.734,3.332-7.734,9.458v25.255h13.648
			v8.169h-32.14v-8.169h8.173v-25.255c0-10.427,5.261-18.06,17.836-18.06c8.169,0,14.831,3.229,18.055,12.902H184.633z"/>
	</g>
	<g>
		<path fill="#A56E29" d="M225.365,507.261h-11.498l-20.526-50.296h10.958l15.261,37.828l15.369-37.828h10.965L225.365,507.261z"/>
	</g>
	<g>
		<path fill="#A56E29" d="M292.533,485.123h-35.573c0.748,10.103,6.556,14.721,13.434,14.721c6.34,0,9.562-3.22,10.641-5.911h10.636
			c-1.82,7.418-8.268,14.4-21.384,14.4c-12.68,0-23.969-7.845-23.969-25.791c0-16.982,10.318-26.652,23.644-26.652
			c13.543,0,22.68,9.348,22.68,25.037C292.64,482.758,292.533,485.123,292.533,485.123z M269.745,464.053
			c-6.123,0-11.604,4.194-12.569,13.224h24.829C281.466,467.925,276.307,464.053,269.745,464.053z"/>
	</g>
	<g>
		<path fill="#A56E29" d="M333.587,507.261v-4.943c-2.9,4.188-8.066,6.016-13.331,6.016c-13.111,0-23.105-7.948-23.105-26.222
			c0-18.269,9.994-26.222,23.105-26.222c5.265,0,10.106,1.827,13.331,6.018v-29.878h10.426v75.231H333.587z M320.687,464.379
			c-7.518,0-13.002,5.804-13.002,17.732c0,11.934,5.484,17.732,13.002,17.732c7.526,0,12.9-5.479,12.9-17.732
			S328.213,464.379,320.687,464.379z"/>
	</g>
	<g>
		<path fill="#A56E29" d="M384.523,507.261v-2.902c-2.9,2.688-7.412,3.975-12.572,3.975c-15.152,0-20.634-8.381-20.634-16.548
			c0-7.738,5.481-16.446,20.634-16.446c4.736,0,9.57,1.186,12.362,3.549v-5.051c0-7.311-3.979-9.566-10.532-9.566
			c-6.664,0-9.141,2.472-10.103,5.054h-10.75c1.61-7.417,6.878-13.435,20.853-13.435c14.08,0,20.85,4.943,20.85,18.915v32.456
			H384.523z M372.814,483.614c-8.388,0-11.072,4.409-11.072,8.171c0,3.87,2.685,8.275,11.072,8.275
			c8.383,0,11.709-3.975,11.709-8.275C384.523,487.595,381.197,483.614,372.814,483.614z"/>
	</g>
</g>
<g>
	<g>
		<path fill="#A56E29" d="M135.862,563.456c-2.619,0-5.189-0.909-6.638-2.996v2.463h-5.189v-37.456h5.189v14.877
			c1.606-2.092,4.019-2.998,6.638-2.998c6.477,0,11.506,3.958,11.506,13.057C147.368,559.498,142.338,563.456,135.862,563.456z
			 M135.648,541.573c-3.742,0-6.424,2.728-6.424,8.829c0,6.101,2.682,8.828,6.424,8.828c3.745,0,6.477-2.889,6.477-8.828
			C142.125,544.464,139.393,541.573,135.648,541.573z"/>
	</g>
	<g>
		<path fill="#A56E29" d="M172.673,551.9h-17.708c0.377,5.033,3.266,7.33,6.688,7.33c3.158,0,4.762-1.604,5.296-2.943h5.294
			c-0.902,3.694-4.113,7.169-10.641,7.169c-6.317,0-11.933-3.905-11.933-12.84c0-8.454,5.139-13.271,11.77-13.271
			c6.741,0,11.289,4.655,11.289,12.467C172.728,550.725,172.673,551.9,172.673,551.9z M161.335,541.408
			c-3.052,0-5.784,2.089-6.267,6.582h12.363C167.166,543.339,164.597,541.408,161.335,541.408z"/>
	</g>
	<g>
		<path fill="#A56E29" d="M191.672,562.923v-1.445c-1.443,1.337-3.692,1.979-6.263,1.979c-7.542,0-10.276-4.172-10.276-8.239
			c0-3.849,2.734-8.187,10.276-8.187c2.354,0,4.762,0.587,6.156,1.768v-2.516c0-3.641-1.981-4.762-5.25-4.762
			c-3.312,0-4.545,1.229-5.027,2.514h-5.355c0.81-3.69,3.432-6.688,10.382-6.688c7.01,0,10.382,2.458,10.382,9.418v16.159H191.672z
			 M185.84,551.15c-4.172,0-5.514,2.195-5.514,4.066c0,1.924,1.342,4.122,5.514,4.122c4.175,0,5.833-1.981,5.833-4.122
			C191.672,553.13,190.015,551.15,185.84,551.15z"/>
	</g>
	<g>
		<path fill="#A56E29" d="M217.46,562.923v-2.249c-1.121,1.77-3.586,2.782-6.311,2.782c-7.121,0-10.115-3.958-10.115-10.969V537.88
			h5.133v14.341c0,4.228,1.447,6.688,5.732,6.688c3.423,0,5.561-1.922,5.561-5.454V537.88h5.14v25.043H217.46z"/>
	</g>
	<g>
		<path fill="#A56E29" d="M235.76,563.564c-6.64,0-8.831-4.014-8.831-8.882v-21.19h5.14v5.352h8.935v4.12h-8.935v11.936
			c0,2.728,1.286,4.385,3.795,4.385c1.291,0,2.785-0.481,3.646-2.144h5.347C243.302,561.905,239.88,563.564,235.76,563.564z"/>
	</g>
	<g>
		<path fill="#A56E29" d="M261.98,574.053c-4.817,0-7.492-2.407-7.492-7.33v-3.529c-5.673-0.75-8.131-4.711-8.131-10.812V537.88
			h5.137v14.502c0,4.066,1.657,6.526,5.616,6.526c4.011,0,5.673-2.46,5.673-6.526V537.88h5.133v14.502
			c0,6.151-2.564,10.165-8.288,10.86v3.319c0,2.087,0.801,3.264,2.621,3.264c1.231,0,2.353-0.481,3.209-2.141h5.139
			C269.207,572.073,265.563,574.053,261.98,574.053z"/>
	</g>
</g>
</svg>
